<svg width="1024" height="1024" viewBox="0 0 1024 1024" fill="none" xmlns="http://www.w3.org/2000/svg">
<path d="M512.167 0C298.412 0 235.897 0.220572 223.745 1.2289C179.879 4.87623 152.582 11.7849 122.845 26.5947C99.9271 37.9779 81.853 51.1728 64.0151 69.6694C31.5289 103.401 11.8403 144.9 4.71302 194.23C1.24782 218.178 0.239763 223.062 0.035002 345.385C-0.0437525 386.159 0.035002 439.822 0.035002 511.799C0.035002 725.439 0.271265 787.909 1.29507 800.04C4.83902 842.737 11.5331 869.599 25.7089 898.983C52.8005 955.229 104.542 997.453 165.498 1013.21C186.604 1018.64 209.916 1021.64 239.842 1023.05C252.522 1023.61 381.758 1024 511.072 1024C640.387 1024 769.702 1023.84 782.066 1023.21C816.718 1021.58 836.84 1018.88 859.088 1013.13C889.313 1005.38 917.481 991.117 941.625 971.347C965.77 951.577 985.309 926.773 998.877 898.668C1012.78 869.993 1019.83 842.106 1023.02 801.639C1023.71 792.816 1024 652.146 1024 511.665C1024 371.161 1023.69 230.75 1022.99 221.927C1019.76 180.806 1012.71 153.156 998.365 123.93C986.592 100.006 973.518 82.1396 954.539 63.8715C920.674 31.5104 879.249 11.8164 829.878 4.69504C805.961 1.23678 801.196 0.212695 678.812 0H512.167Z" fill="url(#paint0_radial_1370_18389)"/>
<path d="M726 436.2C673.2 406.333 618.267 388.2 561.2 381.8V857H457.2V381.8C399.6 388.2 344.4 406.333 291.6 436.2L255.6 356.2C292.933 333.8 332.933 317 375.6 305.8C418.8 294.6 463.067 289 508.4 289C553.733 289 598 294.6 641.2 305.8C684.4 317 724.667 333.8 762 356.2L726 436.2Z" fill="#2E2E2E"/>
<defs>
<radialGradient id="paint0_radial_1370_18389" cx="0" cy="0" r="1" gradientUnits="userSpaceOnUse" gradientTransform="translate(272.001 1102.87) rotate(-90) scale(1014.86 943.899)">
<stop stop-color="#FFDD55"/>
<stop offset="0.1" stop-color="#FFDD55"/>
<stop offset="0.5" stop-color="#FF543E"/>
<stop offset="1" stop-color="#C837AB"/>
</radialGradient>
</defs>
</svg>
